# xmcd CD database file
#
# Track frame offsets:
#	150
#	16382
#	31381
#	46132
#	63053
#	78741
#	93358
#	110568
#	127842
#	143978
#
# Disc length: 2179 seconds
#
# Revision: 0
# Processed by: cddbd v1.5.2PL0 Copyright (c) Steve Scherf et al.
# Submitted via: CDex 1.51
#
DISCID=7b08810a
DTITLE=Ilse DeLange - Gravel and Dust
DYEAR=2019
DGENRE=Country
TTITLE0=New Amsterdam
TTITLE1=Gravel and Dust
TTITLE2=Where Dreams Go To Die
TTITLE3=Went For A While
TTITLE4=Always Been
TTITLE5=No End In Sight
TTITLE6=Some Things You Don't Forget
TTITLE7=No Man's Land Man
TTITLE8=Mirror Of The Broken Past
TTITLE9=The Only Thing I Ever Got Right
EXTD=YEAR: 2019
EXTT0=
EXTT1=
EXTT2=
EXTT3=
EXTT4=
EXTT5=
EXTT6=
EXTT7=
EXTT8=
EXTT9=
PLAYORDER=
